<svg width="30" height="30" viewBox="0 0 30 30" fill="none" xmlns="http://www.w3.org/2000/svg">
<path d="M23.9999 15.79C23.8426 17.4922 23.2038 19.1144 22.1581 20.4668C21.1125 21.8192 19.7034 22.8458 18.0956 23.4265C16.4878 24.0073 14.7479 24.1181 13.0794 23.7461C11.4109 23.3741 9.8829 22.5345 8.67413 21.3258C7.46536 20.117 6.62584 18.589 6.25381 16.9205C5.88178 15.252 5.99262 13.5121 6.57336 11.9043C7.15411 10.2965 8.18073 8.88737 9.53311 7.84175C10.8855 6.79614 12.5077 6.15731 14.2099 6C13.2133 7.34827 12.7338 9.00945 12.8584 10.6814C12.9831 12.3534 13.7038 13.9251 14.8893 15.1106C16.0748 16.2961 17.6465 17.0168 19.3185 17.1415C20.9905 17.2662 22.6516 16.7866 23.9999 15.79Z" stroke="white" stroke-width="2" stroke-linecap="round" stroke-linejoin="round"/>
</svg>
