<svg width="30" height="30" viewBox="0 0 30 30" fill="none" xmlns="http://www.w3.org/2000/svg">
<path d="M20.1855 17.4609C21.0645 16.0781 21.5801 14.4375 21.5801 12.6738C21.5801 7.74609 17.5898 3.75 12.668 3.75C7.74023 3.75 3.75 7.74609 3.75 12.6738C3.75 17.6016 7.74023 21.5977 12.6621 21.5977C14.4492 21.5977 16.1133 21.0703 17.5078 20.168L17.9121 19.8867L24.2754 26.25L26.25 24.2402L19.8926 17.877L20.1855 17.4609ZM17.6602 7.6875C18.9902 9.01758 19.7227 10.7871 19.7227 12.668C19.7227 14.5488 18.9902 16.3184 17.6602 17.6484C16.3301 18.9785 14.5605 19.7109 12.6797 19.7109C10.7988 19.7109 9.0293 18.9785 7.69922 17.6484C6.36914 16.3184 5.63672 14.5488 5.63672 12.668C5.63672 10.7871 6.36914 9.01758 7.69922 7.6875C9.0293 6.35742 10.7988 5.625 12.6797 5.625C14.5605 5.625 16.3301 6.35742 17.6602 7.6875Z" fill="white"/>
</svg>
